<svg xmlns="http://www.w3.org/2000/svg" viewBox="0 0 80 80" width="80px" height="80px">
  <rect width="80" height="80" fill="#f7df1e"/>
  <path d="M 34.878 60.776 L 34.878 60.776 Q 32.118 60.776 30.15 59.588 Q 28.182 58.4 27.066 56.3 L 30.756 54.332 Q 31.266 55.268 32.148 55.814 Q 33.03 56.36 34.236 56.36 L 34.236 56.36 Q 36.114 56.36 37.152 55.286 Q 38.19 54.212 38.19 52.022 L 38.19 52.022 L 38.19 40.442 L 42.096 40.442 L 42.096 51.968 Q 42.096 55.448 40.272 57.62 Q 38.448 59.792 35.34 60.422 L 35.34 60.422 Q 35.136 60.542 34.878 60.776 Z M 56.202 60.458 L 52.494 60.458 L 52.494 40.442 L 48.378 40.442 L 48.378 36.908 L 56.202 36.908 L 56.202 40.442 L 52.494 40.442 L 52.494 60.458 Z M 60.306 51.572 Q 60.306 56.168 57.348 58.928 Q 54.39 61.688 49.482 61.688 L 49.482 61.688 Q 44.682 61.688 41.742 58.964 Q 38.802 56.24 38.802 51.68 L 38.802 51.68 Q 38.802 47.102 41.718 44.342 Q 44.634 41.582 49.428 41.582 L 49.428 41.582 Q 54.336 41.582 57.312 44.306 Q 60.288 47.03 60.306 51.572 L 60.306 51.572 Z M 56.418 51.626 Q 56.418 48.422 54.906 46.616 Q 53.394 44.81 50.634 44.81 L 50.634 44.81 Q 49.806 44.81 49.068 44.96 L 49.068 58.13 Q 49.842 58.286 50.634 58.286 L 50.634 58.286 Q 53.412 58.286 54.915 56.516 Q 56.418 54.746 56.418 51.626 Z" fill="#000000"/>
</svg>