<svg xmlns="http://www.w3.org/2000/svg" viewBox="0 0 220 220" width="220" height="220">
  <defs>
    <linearGradient id="python-grad-blue" x1="0%" y1="0%" x2="100%" y2="100%">
      <stop offset="0%" style="stop-color:#306998;stop-opacity:1" />
      <stop offset="100%" style="stop-color:#306998;stop-opacity:1" />
    </linearGradient>
    <linearGradient id="python-grad-yellow" x1="0%" y1="0%" x2="100%" y2="100%">
      <stop offset="0%" style="stop-color:#FFD43B;stop-opacity:1" />
      <stop offset="100%" style="stop-color:#FFD43B;stop-opacity:1" />
    </linearGradient>
  </defs>
  <path fill="url(#python-grad-blue)" d="M 110,10 C 80,10 60,40 60,70 C 60,100 80,130 110,130 C 140,130 160,100 160,70 C 160,40 140,10 110,10 z M 110,20 C 135,20 150,40 150,70 C 150,90 140,110 110,120 C 80,110 70,90 70,70 C 70,40 85,20 110,20 z M 90,50 C 90,40 100,30 110,30 C 120,30 130,40 130,50 C 130,60 120,70 110,70 C 100,70 90,60 90,50 z M 110,100 C 100,100 90,110 90,120 C 90,130 100,140 110,140 C 120,140 130,130 130,120 C 130,110 120,100 110,100 z"/>
  <path fill="url(#python-grad-yellow)" d="M 110,90 C 80,90 60,120 60,150 C 60,180 80,210 110,210 C 140,210 160,180 160,150 C 160,120 140,90 110,90 z M 110,100 C 135,100 150,120 150,150 C 150,170 140,190 110,200 C 80,190 70,170 70,150 C 70,120 85,100 110,100 z M 90,130 C 90,120 100,110 110,110 C 120,110 130,120 130,130 C 130,140 120,150 110,150 C 100,150 90,140 90,130 z M 110,180 C 100,180 90,190 90,200 C 90,210 100,220 110,220 C 120,220 130,210 130,200 C 130,190 120,180 110,180 z"/>
</svg>